<svg width="20" height="20" viewBox="0 0 20 20" fill="none" xmlns="http://www.w3.org/2000/svg">
<path fill-rule="evenodd" clip-rule="evenodd" d="M14.375 8.74999C14.375 10.2415 13.7825 11.6719 12.7278 12.7266C11.6732 13.7812 10.2428 14.3737 8.75124 14.3737C7.25973 14.3737 5.82931 13.7812 4.77465 12.7266C3.71999 11.6719 3.12749 10.2415 3.12749 8.74999C3.12749 7.25848 3.71999 5.82806 4.77465 4.7734C5.82931 3.71874 7.25973 3.12624 8.75124 3.12624C10.2428 3.12624 11.6732 3.71874 12.7278 4.7734C13.7825 5.82806 14.375 7.25848 14.375 8.74999V8.74999ZM13.35 14.675C11.843 15.845 9.9467 16.3966 8.04724 16.2177C6.14778 16.0387 4.38792 15.1426 3.12593 13.7117C1.86394 12.2809 1.19468 10.4229 1.25441 8.51593C1.31414 6.609 2.09837 4.7965 3.44744 3.44744C4.7965 2.09837 6.609 1.31414 8.51593 1.25441C10.4229 1.19468 12.2809 1.86394 13.7117 3.12593C15.1426 4.38792 16.0387 6.14778 16.2177 8.04724C16.3966 9.9467 15.845 11.843 14.675 13.35L18.475 17.15C18.5671 17.2358 18.641 17.3393 18.6922 17.4543C18.7435 17.5693 18.771 17.6935 18.7732 17.8193C18.7755 17.9452 18.7523 18.0703 18.7051 18.187C18.658 18.3037 18.5878 18.4098 18.4988 18.4988C18.4098 18.5878 18.3037 18.658 18.187 18.7051C18.0703 18.7523 17.9452 18.7755 17.8193 18.7732C17.6935 18.771 17.5693 18.7435 17.4543 18.6922C17.3393 18.641 17.2358 18.5671 17.15 18.475L13.35 14.675V14.675Z" fill="black"/>
</svg>
